<svg id="svg" version="1.1" xmlns="http://www.w3.org/2000/svg" xmlns:xlink="http://www.w3.org/1999/xlink" width="400" height="400" viewBox="0, 0, 400,400"><g id="svgg"><path id="path0" d="M0.000 200.000 L 0.000 400.000 200.000 400.000 L 400.000 400.000 400.000 200.000 L 400.000 0.000 200.000 0.000 L 0.000 0.000 0.000 200.000 M156.625 105.107 C 157.421 105.689,157.421 107.350,156.625 107.933 C 156.166 108.268,154.412 108.383,149.724 108.385 C 137.236 108.388,130.704 112.818,127.474 123.475 C 124.262 134.068,132.397 150.042,141.004 150.042 C 141.659 150.042,142.259 150.233,142.337 150.466 C 142.444 150.789,144.967 150.914,153.037 150.996 L 163.596 151.103 163.886 150.318 L 164.177 149.534 154.823 149.353 C 144.188 149.148,143.442 148.991,139.577 146.146 C 128.327 137.864,129.992 117.474,142.414 111.401 L 144.778 110.246 215.195 110.157 C 267.307 110.091,285.731 110.168,286.074 110.452 C 287.025 111.242,286.583 112.481,284.589 114.612 C 275.739 124.073,275.537 134.658,284.028 143.901 C 286.668 146.774,286.952 147.304,286.420 148.370 L 286.009 149.196 225.272 149.281 C 170.093 149.359,164.553 149.416,164.740 149.902 C 164.853 150.196,164.945 150.576,164.945 150.747 C 164.945 150.930,169.294 151.058,175.445 151.058 C 184.552 151.058,185.944 150.991,185.944 150.550 C 185.944 149.819,199.930 149.824,203.387 150.556 C 206.891 151.298,225.640 151.293,225.355 150.550 C 225.188 150.113,225.834 150.042,229.975 150.042 C 234.115 150.042,234.762 150.113,234.594 150.550 C 234.429 150.979,234.876 151.058,237.437 151.058 C 239.911 151.058,240.474 150.964,240.474 150.550 C 240.474 150.135,241.053 150.042,243.650 150.042 C 246.060 150.042,246.928 150.165,247.248 150.550 C 247.605 150.981,249.187 151.058,257.609 151.058 C 266.305 151.058,267.524 150.995,267.354 150.550 C 267.187 150.117,267.720 150.042,270.957 150.042 C 274.194 150.042,274.726 150.117,274.560 150.550 C 274.391 150.990,275.135 151.058,280.044 151.058 C 286.129 151.058,286.537 151.165,286.537 152.752 C 286.537 154.368,286.194 154.445,279.018 154.445 L 272.312 154.445 272.312 156.591 L 272.312 158.737 274.428 159.322 C 275.593 159.643,277.651 160.501,279.003 161.227 L 281.460 162.548 282.520 160.444 C 286.921 151.714,297.978 147.652,309.992 150.353 L 313.633 151.171 313.633 154.502 C 313.633 158.397,313.243 158.761,311.939 156.084 C 310.837 153.822,308.749 152.590,305.097 152.046 C 296.187 150.721,288.216 155.567,285.383 164.034 L 284.838 165.662 286.355 167.789 C 289.527 172.234,291.390 177.498,291.823 183.240 L 292.053 186.274 293.722 187.345 C 298.095 190.151,304.898 191.095,308.637 189.415 L 310.246 188.692 310.226 181.137 C 310.205 172.803,309.983 171.499,308.461 170.770 C 306.786 169.968,307.828 169.687,312.467 169.687 C 317.073 169.687,318.174 170.032,316.263 170.877 C 314.779 171.533,314.659 172.360,314.654 181.938 L 314.649 190.972 313.548 191.315 C 308.131 193.001,298.738 193.090,294.277 191.498 L 291.348 190.452 291.134 191.791 C 289.388 202.714,279.201 211.346,268.057 211.346 L 265.468 211.346 266.514 212.538 C 267.089 213.193,267.655 214.108,267.771 214.570 L 267.982 215.411 279.292 215.411 C 291.363 215.411,291.956 215.494,291.956 217.198 C 291.956 219.117,291.835 219.136,279.574 219.136 L 268.247 219.136 268.247 220.660 L 268.247 222.185 279.751 222.185 C 290.778 222.185,291.269 222.212,291.605 222.840 C 292.214 223.977,292.020 224.316,288.963 227.458 C 281.265 235.368,281.265 242.603,288.962 250.425 C 292.004 253.517,292.374 254.233,291.424 255.183 C 290.943 255.664,283.113 255.715,210.295 255.715 L 129.699 255.715 127.593 255.012 C 111.391 249.598,113.423 224.017,130.193 222.286 L 132.091 222.090 132.091 220.613 L 132.091 219.136 129.792 219.136 C 108.816 219.136,104.038 250.283,123.854 257.842 L 125.826 258.594 208.334 258.683 C 290.606 258.772,290.844 258.774,291.461 259.455 C 291.950 259.996,292.012 260.331,291.756 261.060 L 291.432 261.981 209.137 262.083 C 147.803 262.160,126.367 262.086,124.979 261.794 C 111.979 259.060,104.231 244.258,108.850 230.977 C 112.027 221.842,120.875 215.411,130.265 215.411 L 132.091 215.411 132.091 213.378 L 132.091 211.346 130.848 211.346 C 130.164 211.346,129.326 211.094,128.985 210.786 C 127.569 209.504,128.757 207.621,130.981 207.621 C 131.940 207.621,132.091 207.505,132.091 206.774 C 132.091 206.116,131.918 205.927,131.312 205.927 C 129.400 205.927,129.198 204.048,130.906 202.157 C 131.844 201.118,132.091 200.562,132.091 199.491 C 132.091 198.225,132.155 198.137,133.066 198.137 C 133.602 198.137,134.198 197.947,134.390 197.714 C 134.839 197.169,137.168 192.629,137.170 192.295 C 137.171 192.155,132.752 192.041,127.350 192.041 C 117.905 192.041,116.624 191.920,118.290 191.190 C 120.206 190.349,120.236 190.043,120.237 171.115 C 120.237 152.260,120.197 151.827,118.392 151.005 C 116.624 150.200,117.708 150.042,125.024 150.042 L 132.520 150.042 130.018 147.417 C 116.993 133.754,123.680 108.971,141.406 105.215 C 144.602 104.537,155.738 104.458,156.625 105.107 M288.288 105.218 C 289.046 105.904,289.075 106.639,288.380 107.630 L 287.853 108.383 228.543 108.383 C 173.829 108.383,169.184 108.339,168.613 107.822 C 167.842 107.125,167.818 106.089,168.554 105.276 C 169.383 104.360,287.277 104.302,288.288 105.218 M145.530 114.130 C 133.381 118.012,131.915 138.121,143.329 144.309 L 145.470 145.470 212.955 145.558 C 250.072 145.606,280.440 145.571,280.440 145.480 C 280.440 145.389,279.832 144.511,279.088 143.529 C 272.729 135.135,272.787 123.866,279.233 115.424 C 279.897 114.554,280.440 113.757,280.440 113.653 C 280.440 113.041,147.466 113.511,145.530 114.130 M101.319 151.004 C 107.078 153.276,109.409 158.657,107.031 164.186 C 105.765 167.129,101.393 170.364,98.681 170.364 C 97.883 170.364,98.071 170.689,104.015 179.608 C 110.507 189.350,111.416 190.514,112.962 191.073 C 114.768 191.726,114.378 192.041,111.759 192.041 C 107.148 192.041,106.542 191.472,99.045 180.106 C 92.374 169.992,93.298 171.128,91.513 170.843 L 90.053 170.610 90.158 180.055 C 90.268 189.988,90.385 190.749,91.870 191.221 C 93.509 191.740,92.053 192.041,87.892 192.041 C 85.069 192.041,83.319 191.911,83.319 191.702 C 83.319 191.516,83.550 191.363,83.832 191.363 C 85.613 191.363,85.687 190.553,85.689 171.109 C 85.690 151.774,85.660 151.417,84.000 150.890 C 81.816 150.197,83.799 149.988,91.363 150.115 C 98.699 150.237,99.576 150.316,101.319 151.004 M90.093 160.358 L 90.093 168.405 93.903 168.269 C 99.333 168.074,101.998 166.437,102.934 162.722 C 104.506 156.479,101.254 152.991,93.420 152.514 L 90.093 152.311 90.093 160.358 M124.640 160.373 L 124.640 168.332 128.090 168.332 L 131.541 168.332 130.631 167.382 C 129.671 166.380,129.446 165.017,130.127 164.335 C 130.430 164.032,134.123 163.929,144.655 163.929 C 157.788 163.929,158.792 163.887,159.011 163.336 C 159.673 161.669,162.235 154.733,162.235 154.609 C 162.235 154.530,157.739 154.423,152.244 154.371 L 142.252 154.276 142.252 155.207 C 142.252 156.242,141.656 156.471,141.371 155.546 C 140.640 153.182,138.008 152.426,130.483 152.419 L 124.640 152.413 124.640 160.373 M166.655 154.869 C 166.664 155.102,167.392 157.197,168.273 159.526 L 169.875 163.760 179.095 163.850 L 188.315 163.940 188.315 163.088 L 188.315 162.235 179.533 162.235 C 169.880 162.235,169.687 162.195,169.687 160.191 C 169.687 158.609,170.278 158.510,179.656 158.510 L 188.315 158.510 188.315 156.478 L 188.315 154.445 177.477 154.445 C 169.023 154.445,166.642 154.539,166.655 154.869 M192.718 156.478 L 192.718 158.510 201.382 158.510 L 210.047 158.510 208.282 157.004 C 205.389 154.534,205.051 154.445,198.509 154.445 L 192.718 154.445 192.718 156.478 M212.362 154.545 C 212.362 154.600,213.165 155.514,214.147 156.577 L 215.931 158.510 221.767 158.510 L 227.604 158.510 227.604 156.478 L 227.604 154.445 219.983 154.445 C 215.792 154.445,212.362 154.490,212.362 154.545 M232.345 156.478 L 232.345 158.510 237.595 158.510 L 242.845 158.510 242.845 156.478 L 242.845 154.445 237.595 154.445 L 232.345 154.445 232.345 156.478 M249.958 154.699 C 249.958 154.844,250.495 155.761,251.152 156.736 L 252.347 158.510 261.161 158.510 L 269.975 158.510 269.873 156.562 L 269.771 154.615 259.865 154.525 C 254.416 154.476,249.958 154.554,249.958 154.699 M245.216 157.324 C 245.216 158.359,245.322 158.510,246.051 158.510 L 246.887 158.510 246.187 157.324 C 245.802 156.672,245.427 156.139,245.352 156.139 C 245.277 156.139,245.216 156.672,245.216 157.324 M153.238 158.960 C 153.582 159.212,153.853 159.833,153.853 160.373 C 153.853 162.217,153.718 162.235,140.133 162.235 C 132.172 162.235,127.406 162.108,126.989 161.885 C 126.125 161.422,126.082 159.367,126.926 158.876 C 127.889 158.315,152.463 158.393,153.238 158.960 M162.337 160.638 C 161.933 161.796,161.500 163.010,161.374 163.336 C 161.174 163.857,161.376 163.929,163.046 163.929 C 165.230 163.929,165.225 163.941,164.213 161.085 C 163.212 158.260,163.171 158.250,162.337 160.638 M192.718 163.085 L 192.718 163.935 203.048 163.919 C 208.730 163.909,213.378 163.822,213.378 163.724 C 213.378 162.265,213.163 162.235,202.698 162.235 L 192.718 162.235 192.718 163.085 M218.120 162.427 C 218.120 163.734,218.780 163.929,223.213 163.929 L 227.604 163.929 227.604 163.082 L 227.604 162.235 222.862 162.235 C 220.254 162.235,218.120 162.322,218.120 162.427 M232.345 163.082 L 232.345 163.929 237.595 163.929 L 242.845 163.929 242.845 163.082 L 242.845 162.235 237.595 162.235 L 232.345 162.235 232.345 163.082 M245.216 163.082 C 245.216 163.905,245.284 163.929,247.587 163.929 C 249.997 163.929,250.505 163.596,249.551 162.642 C 248.687 161.777,245.216 162.130,245.216 163.082 M255.122 162.997 C 255.617 163.743,255.787 163.762,262.784 163.851 L 269.941 163.942 269.941 163.089 L 269.941 162.235 262.279 162.235 L 254.617 162.235 255.122 162.997 M272.312 163.829 C 272.312 165.006,272.443 165.221,273.458 165.705 C 274.942 166.413,276.848 168.095,278.429 170.093 L 279.688 171.685 280.007 169.085 C 280.386 166.009,280.331 165.929,276.545 164.094 C 272.742 162.250,272.312 162.224,272.312 163.829 M135.648 167.655 C 135.763 167.841,136.068 167.993,136.325 167.993 C 136.583 167.993,136.887 167.841,137.003 167.655 C 137.122 167.462,136.830 167.316,136.325 167.316 C 135.820 167.316,135.529 167.462,135.648 167.655 M139.304 170.618 C 139.421 173.271,139.669 174.520,140.566 176.969 C 141.514 179.559,141.706 180.598,141.842 183.880 C 141.990 187.436,142.866 188.635,142.918 185.351 C 142.925 184.905,143.140 184.589,143.438 184.589 C 143.859 184.589,143.946 185.229,143.946 188.315 L 143.946 192.041 142.467 192.041 L 140.988 192.041 140.274 193.988 C 139.632 195.741,137.388 199.779,135.943 201.782 L 135.390 202.549 202.242 202.460 L 269.094 202.371 270.989 201.440 C 280.814 196.615,282.786 179.880,274.561 171.126 C 273.643 170.148,272.760 169.348,272.601 169.348 C 272.442 169.348,272.312 174.454,272.312 180.694 L 272.312 192.041 270.181 192.041 L 268.050 192.041 260.274 179.684 L 252.498 167.327 248.840 167.321 L 245.182 167.316 245.283 178.408 C 245.391 190.107,245.475 190.739,246.993 191.221 C 248.509 191.701,247.283 192.041,244.030 192.041 C 240.688 192.041,239.556 191.700,241.182 191.184 C 242.680 190.709,242.845 189.402,242.845 177.996 L 242.845 167.316 237.595 167.316 L 232.345 167.316 232.347 178.239 C 232.348 189.869,232.559 191.363,234.203 191.363 C 234.485 191.363,234.716 191.516,234.716 191.702 C 234.716 191.912,232.910 192.041,229.975 192.041 C 227.039 192.041,225.233 191.912,225.233 191.702 C 225.233 191.516,225.450 191.363,225.716 191.363 C 227.455 191.363,227.604 190.344,227.604 178.447 L 227.604 167.316 223.624 167.316 L 219.644 167.315 219.758 170.449 C 220.128 180.705,213.356 189.415,203.365 191.531 C 198.990 192.458,183.585 192.158,186.589 191.204 C 188.149 190.709,188.315 189.442,188.315 178.018 L 188.315 167.316 179.848 167.316 C 175.191 167.316,171.380 167.446,171.380 167.606 C 171.380 168.115,178.832 188.004,179.550 189.412 C 179.979 190.253,180.615 190.906,181.229 191.138 C 183.078 191.836,182.226 192.041,177.477 192.041 C 173.064 192.041,171.574 191.728,173.582 191.224 C 174.929 190.886,174.659 189.543,171.606 181.372 L 168.822 173.920 163.242 173.830 L 157.663 173.740 154.834 181.545 C 151.911 189.610,151.704 190.754,153.091 191.194 C 154.687 191.701,153.530 192.041,150.212 192.041 C 146.899 192.041,145.736 191.701,147.324 191.197 C 148.549 190.808,149.370 189.085,153.249 178.757 C 155.367 173.116,157.205 168.235,157.333 167.909 C 157.552 167.353,156.991 167.316,148.363 167.316 L 139.159 167.316 139.304 170.618 M159.211 169.191 C 158.826 170.223,158.510 171.137,158.510 171.224 C 158.510 171.310,160.637 171.380,163.238 171.380 L 167.966 171.380 167.235 169.348 L 166.503 167.316 163.208 167.316 L 159.913 167.316 159.211 169.191 M192.718 178.540 L 192.718 189.764 196.528 189.580 C 205.570 189.143,211.899 185.019,214.452 177.900 C 215.190 175.843,215.501 170.136,214.978 168.247 L 214.720 167.316 203.719 167.316 L 192.718 167.316 192.718 178.540 M258.086 167.443 C 258.086 167.551,260.715 171.786,263.929 176.855 L 269.771 186.070 269.862 177.139 C 269.922 171.149,269.833 168.089,269.591 167.847 C 269.216 167.471,258.086 167.080,258.086 167.443 M124.640 180.193 L 124.640 189.684 131.329 189.592 L 138.019 189.500 138.327 187.468 C 138.983 183.147,137.472 176.971,134.703 172.650 L 133.455 170.703 129.047 170.703 L 124.640 170.703 124.640 180.193 M284.505 172.494 C 284.505 174.490,286.977 181.145,287.939 181.740 C 288.634 182.169,286.900 175.801,285.652 173.336 C 284.736 171.529,284.505 171.360,284.505 172.494 M283.232 186.052 C 282.982 194.227,278.866 201.448,272.726 204.483 L 270.145 205.758 202.304 205.846 L 134.462 205.934 134.462 206.777 L 134.462 207.621 202.964 207.612 C 249.000 207.607,271.965 207.489,272.989 207.253 C 279.935 205.653,285.953 198.832,287.715 190.562 L 288.158 188.484 286.750 187.130 C 285.976 186.384,284.887 185.196,284.331 184.488 L 283.319 183.202 283.232 186.052 M134.462 213.378 L 134.462 215.411 148.984 215.411 L 163.506 215.411 163.699 214.442 C 163.806 213.909,164.296 212.995,164.788 212.410 L 165.683 211.346 150.072 211.346 L 134.462 211.346 134.462 213.378 M169.391 211.836 C 167.790 212.354,166.124 213.735,165.854 214.767 C 165.692 215.387,166.002 215.411,174.141 215.411 L 182.595 215.411 181.984 214.352 C 180.425 211.655,173.950 210.361,169.391 211.836 M183.363 212.449 C 183.826 213.055,184.363 213.969,184.558 214.481 L 184.911 215.411 189.661 215.411 L 194.412 215.411 194.412 213.378 L 194.412 211.346 188.467 211.346 L 182.523 211.346 183.363 212.449 M196.782 213.378 L 196.782 215.411 205.758 215.411 L 214.733 215.411 214.733 213.378 L 214.733 211.346 205.758 211.346 L 196.782 211.346 196.782 213.378 M217.104 213.378 L 217.104 215.411 222.015 215.411 L 226.926 215.411 226.926 213.378 L 226.926 211.346 222.015 211.346 L 217.104 211.346 217.104 213.378 M229.305 212.786 L 229.312 214.225 229.935 213.416 C 230.277 212.971,230.921 212.326,231.367 211.984 L 232.176 211.361 230.737 211.354 L 229.297 211.346 229.305 212.786 M237.855 211.719 C 234.770 212.078,230.991 213.957,230.991 215.131 C 230.991 215.285,234.081 215.411,237.859 215.411 C 245.299 215.411,246.232 215.615,246.232 217.240 C 246.232 219.016,245.654 219.136,237.145 219.136 L 229.297 219.136 229.297 220.676 L 229.297 222.215 247.756 222.115 L 266.215 222.015 266.215 220.576 L 266.215 219.136 262.711 219.136 C 258.938 219.136,258.086 218.776,258.086 217.181 C 258.086 215.896,259.314 215.411,262.565 215.411 C 265.980 215.411,266.122 215.238,264.255 213.371 C 260.393 209.509,249.939 210.948,248.819 215.495 C 248.491 216.828,246.571 216.886,246.571 215.563 C 246.571 214.635,247.345 212.901,248.188 211.939 C 248.780 211.264,242.853 211.138,237.855 211.719 M134.462 220.684 L 134.462 222.231 158.679 222.123 L 182.896 222.015 182.896 220.576 L 182.896 219.136 158.679 219.136 L 134.462 219.136 134.462 220.684 M185.267 220.660 L 185.267 222.185 189.839 222.185 L 194.412 222.185 194.412 220.660 L 194.412 219.136 189.839 219.136 L 185.267 219.136 185.267 220.660 M196.782 220.660 L 196.782 222.185 205.758 222.185 L 214.733 222.185 214.733 220.660 L 214.733 219.136 205.758 219.136 L 196.782 219.136 196.782 220.660 M217.104 220.660 L 217.104 222.185 222.015 222.185 L 226.926 222.185 226.926 220.660 L 226.926 219.136 222.015 219.136 L 217.104 219.136 217.104 220.660 M130.104 225.937 C 117.810 228.353,116.255 246.653,127.944 251.373 L 129.890 252.159 207.692 252.248 L 285.494 252.337 283.650 249.887 C 278.366 242.863,278.443 234.961,283.865 227.703 C 284.589 226.733,285.182 225.857,285.182 225.755 C 285.182 225.654,281.372 225.572,276.715 225.572 L 268.247 225.572 268.247 232.176 L 268.247 238.781 267.231 238.781 L 266.215 238.781 266.215 236.595 L 266.215 234.410 264.569 236.056 C 259.627 240.998,249.223 240.593,246.551 235.354 C 245.583 233.458,245.311 229.400,246.003 227.180 L 246.504 225.572 237.901 225.572 L 229.297 225.572 229.297 232.176 L 229.297 238.781 228.112 238.781 L 226.926 238.781 226.926 232.176 L 226.926 225.572 222.015 225.572 L 217.104 225.572 217.104 232.176 L 217.104 238.781 215.919 238.781 L 214.733 238.781 214.733 236.276 L 214.733 233.770 212.447 236.053 C 209.487 239.008,207.841 239.615,203.422 239.383 C 197.079 239.050,194.808 236.507,194.494 229.382 L 194.326 225.572 189.796 225.572 L 185.267 225.572 185.267 232.176 L 185.267 238.781 184.081 238.781 L 182.896 238.781 182.896 236.677 L 182.896 234.572 181.287 236.134 C 175.765 241.492,164.744 240.285,162.897 234.119 C 162.481 232.730,162.593 227.205,163.059 226.164 C 163.309 225.605,162.512 225.572,148.893 225.572 L 134.462 225.572 134.462 231.160 L 134.462 236.749 145.470 236.749 L 156.478 236.749 156.478 237.765 L 156.478 238.781 144.834 238.781 C 130.761 238.781,132.296 239.648,132.155 231.617 C 132.096 228.292,131.944 225.588,131.816 225.609 C 131.688 225.629,130.918 225.777,130.104 225.937 M165.647 226.464 C 164.579 227.821,164.618 233.119,165.707 234.721 C 168.093 238.233,175.834 238.385,179.694 234.996 C 182.040 232.936,182.896 231.294,182.896 228.852 C 182.896 225.565,182.914 225.572,173.788 225.572 L 166.349 225.572 165.647 226.464 M196.782 229.056 C 196.782 235.621,199.524 238.078,205.995 237.312 C 210.397 236.790,214.733 231.890,214.733 227.438 L 214.733 225.572 205.758 225.572 L 196.782 225.572 196.782 229.056 M248.695 226.487 C 247.673 228.047,247.656 232.876,248.668 234.370 C 252.974 240.724,266.204 236.599,266.213 228.898 C 266.217 225.646,266.007 225.572,256.863 225.572 L 249.296 225.572 248.695 226.487 " stroke="none" fill="#d3f3f3" fill-rule="evenodd"></path><path id="path1" d="M164.128 150.254 C 163.994 150.603,160.754 159.272,156.928 169.517 C 149.600 189.145,148.842 190.888,147.490 191.227 C 145.686 191.680,146.817 192.041,150.042 192.041 C 152.075 192.041,153.429 191.905,153.429 191.702 C 153.429 191.516,153.280 191.363,153.098 191.363 C 151.399 191.363,151.614 190.006,154.650 181.579 L 157.592 173.412 163.216 173.415 L 168.840 173.417 171.832 181.522 C 174.948 189.960,175.088 190.638,173.834 191.190 C 172.322 191.855,173.155 192.041,177.646 192.041 C 181.915 192.041,183.450 191.708,181.287 191.251 C 179.804 190.938,179.316 189.834,172.435 171.211 C 164.059 148.540,164.429 149.473,164.128 150.254 M296.190 150.344 C 275.463 155.509,274.432 184.692,294.737 191.489 C 298.845 192.865,305.930 192.876,311.905 191.517 L 314.310 190.970 314.310 182.213 C 314.310 172.890,314.432 172.025,315.929 170.789 L 316.850 170.029 312.396 170.027 L 307.942 170.025 309.094 171.177 L 310.246 172.329 310.246 180.598 L 310.246 188.867 308.975 189.493 C 305.894 191.013,299.493 190.506,295.254 188.405 C 283.458 182.561,280.514 165.634,289.731 156.647 C 296.508 150.038,309.792 149.941,312.409 156.482 C 313.191 158.435,313.294 158.207,313.293 154.530 L 313.292 151.228 309.477 150.466 C 304.789 149.530,299.648 149.483,296.190 150.344 M83.658 150.195 C 83.658 150.337,84.035 150.750,84.497 151.113 C 86.011 152.304,86.075 153.202,85.964 171.719 C 85.853 190.277,85.753 191.363,84.157 191.363 C 83.883 191.363,83.658 191.516,83.658 191.702 C 83.658 191.910,85.351 192.041,88.061 192.041 C 90.771 192.041,92.464 191.910,92.464 191.702 C 92.464 191.516,92.246 191.363,91.981 191.363 C 91.715 191.363,91.181 190.962,90.795 190.471 C 89.836 189.251,89.677 170.132,90.629 170.497 C 90.924 170.610,91.589 170.703,92.109 170.703 C 92.969 170.703,93.558 171.474,98.767 179.424 C 105.147 189.164,106.739 191.040,109.135 191.643 C 111.066 192.129,113.802 192.164,113.802 191.702 C 113.802 191.516,113.574 191.363,113.295 191.363 C 112.028 191.363,97.155 171.198,97.943 170.549 C 98.003 170.500,98.939 170.185,100.023 169.850 C 110.396 166.643,110.439 153.666,100.085 150.827 C 98.227 150.318,83.658 149.757,83.658 150.195 M117.866 150.377 C 117.866 150.565,118.097 150.720,118.379 150.720 C 120.161 150.720,120.235 151.523,120.235 171.041 C 120.235 190.560,120.161 191.363,118.379 191.363 C 118.097 191.363,117.866 191.516,117.866 191.702 C 117.866 191.922,122.382 192.041,130.737 192.041 L 143.607 192.041 143.589 188.230 L 143.572 184.420 142.888 186.199 C 142.441 187.363,141.782 188.301,140.985 188.909 L 139.766 189.839 132.119 189.839 L 124.471 189.839 124.471 180.186 L 124.471 170.533 130.332 170.571 C 136.787 170.612,137.518 170.792,138.250 172.526 C 138.665 173.508,138.711 173.311,138.909 169.687 C 139.109 166.025,139.005 164.794,138.594 165.958 C 138.496 166.235,137.995 166.883,137.481 167.397 L 136.547 168.332 130.424 168.332 L 124.301 168.332 124.301 160.373 L 124.301 152.413 131.787 152.413 L 139.272 152.413 140.423 153.565 C 141.057 154.198,141.575 154.960,141.575 155.258 C 141.575 155.556,141.734 155.800,141.927 155.800 C 142.151 155.800,142.244 154.778,142.181 153.006 L 142.083 150.212 129.975 150.123 C 121.969 150.064,117.866 150.150,117.866 150.377 M186.143 150.334 C 186.005 150.556,186.117 150.720,186.408 150.720 C 188.296 150.720,188.315 150.927,188.315 171.132 L 188.315 189.759 187.063 190.940 L 185.811 192.120 193.922 191.954 C 205.249 191.721,208.742 190.603,213.723 185.615 C 225.059 174.262,219.178 154.077,203.556 150.719 C 200.908 150.150,186.454 149.830,186.143 150.334 M225.572 150.342 C 225.572 150.506,225.878 150.721,226.253 150.819 C 229.017 151.542,228.851 191.363,226.085 191.363 C 225.802 191.363,225.572 191.516,225.572 191.702 C 225.572 191.910,227.265 192.041,229.975 192.041 C 232.684 192.041,234.378 191.910,234.378 191.702 C 234.378 191.516,234.142 191.363,233.853 191.363 C 232.176 191.363,232.022 189.684,232.016 171.380 C 232.010 153.359,232.094 152.249,233.543 151.110 C 234.836 150.093,234.668 150.042,229.975 150.042 C 227.553 150.042,225.572 150.177,225.572 150.342 M240.474 150.381 C 240.474 150.567,240.676 150.720,240.923 150.720 C 241.170 150.720,241.729 151.100,242.166 151.565 L 242.960 152.410 243.097 169.600 C 243.253 189.244,243.243 189.384,241.604 190.930 L 240.426 192.041 244.006 192.041 C 247.270 192.041,248.574 191.700,246.944 191.274 C 245.211 190.821,245.203 190.731,245.297 172.583 L 245.385 155.725 247.990 159.912 C 249.423 162.214,254.547 170.347,259.376 177.985 L 268.157 191.871 270.065 191.973 L 271.973 192.074 271.973 172.910 C 271.973 152.437,272.005 152.017,273.641 150.995 C 274.891 150.215,274.405 150.042,270.957 150.042 C 267.878 150.042,266.611 150.390,268.186 150.802 C 269.875 151.244,269.954 152.142,269.859 169.888 L 269.771 186.399 266.569 181.345 C 260.740 172.145,253.976 161.453,251.051 156.816 C 246.403 149.450,247.063 150.042,243.505 150.042 C 241.710 150.042,240.474 150.180,240.474 150.381 M97.735 152.937 C 101.574 153.999,103.364 156.287,103.359 160.127 C 103.352 165.722,100.227 168.460,93.819 168.487 L 90.262 168.501 90.172 160.257 L 90.081 152.013 93.051 152.238 C 94.684 152.361,96.792 152.676,97.735 152.937 M200.691 152.929 C 207.859 154.759,213.516 160.672,215.035 167.925 C 217.647 180.395,208.828 189.953,194.666 190.002 L 192.718 190.008 192.718 171.211 L 192.718 152.413 195.695 152.413 C 197.333 152.413,199.581 152.645,200.691 152.929 M164.421 161.219 C 164.928 162.616,165.940 165.335,166.668 167.262 C 167.397 169.188,167.993 170.902,167.993 171.072 C 167.993 171.243,165.809 171.380,163.085 171.380 L 158.177 171.380 159.045 169.094 C 159.523 167.837,160.617 164.863,161.477 162.485 C 162.337 160.108,163.143 158.279,163.270 158.421 C 163.396 158.563,163.914 159.822,164.421 161.219 M132.430 218.101 L 132.430 237.726 133.183 238.253 C 133.828 238.705,135.554 238.781,145.207 238.781 L 156.478 238.781 156.478 237.934 L 156.478 237.087 145.470 237.087 L 134.462 237.087 134.462 217.782 L 134.462 198.476 133.446 198.476 L 132.430 198.476 132.430 218.101 M168.293 210.120 C 165.685 211.052,163.590 213.542,163.590 215.709 C 163.590 217.044,165.368 216.556,165.655 215.143 C 166.559 210.685,177.945 209.504,181.457 213.504 C 182.877 215.121,184.266 225.137,182.981 224.483 C 174.715 220.281,165.017 221.274,163.200 226.508 C 162.530 228.437,162.647 233.610,163.392 235.022 C 166.247 240.435,176.454 240.829,181.458 235.720 L 183.235 233.905 183.235 236.343 C 183.235 238.717,183.257 238.781,184.081 238.781 L 184.928 238.781 184.928 227.558 C 184.928 213.772,184.505 212.168,180.375 210.292 C 178.668 209.517,170.313 209.398,168.293 210.120 M251.393 210.105 C 248.074 211.309,244.940 216.427,247.522 216.427 C 248.398 216.427,248.555 216.278,248.744 215.272 C 249.307 212.269,251.827 211.233,258.151 211.402 C 264.848 211.582,266.194 213.077,266.208 220.349 L 266.215 224.440 264.268 223.478 C 258.326 220.542,248.845 221.768,246.771 225.741 C 245.926 227.359,245.605 232.080,246.204 234.079 C 248.054 240.254,259.658 241.259,264.675 235.679 L 266.215 233.966 266.215 236.373 L 266.215 238.781 267.231 238.781 L 268.247 238.781 268.247 227.812 C 268.247 214.055,267.801 212.328,263.738 210.361 C 262.030 209.534,253.458 209.356,251.393 210.105 M194.819 221.761 C 194.916 233.074,194.948 233.584,195.651 234.886 C 199.100 241.278,208.929 240.828,214.132 234.039 L 215.040 232.854 215.056 235.817 C 215.072 238.748,215.081 238.781,215.919 238.781 L 216.765 238.781 216.765 224.386 L 216.765 209.992 215.933 209.992 L 215.101 209.992 215.002 219.729 C 214.891 230.635,214.849 230.844,212.151 233.996 C 208.195 238.617,200.153 238.875,197.559 234.463 L 196.613 232.854 196.508 221.423 L 196.403 209.992 195.560 209.992 L 194.718 209.992 194.819 221.761 M227.265 224.386 L 227.265 238.781 228.093 238.781 L 228.922 238.781 229.025 228.535 C 229.121 218.966,229.175 218.189,229.837 216.765 C 231.286 213.655,233.863 211.970,237.511 211.748 C 239.656 211.617,239.797 211.559,239.797 210.800 C 239.797 208.670,233.516 210.131,230.740 212.908 L 228.959 214.689 228.959 212.340 C 228.959 210.061,228.934 209.992,228.112 209.992 L 227.265 209.992 227.265 224.386 M179.203 224.537 C 184.677 226.617,184.747 231.416,179.362 235.523 C 175.483 238.481,167.835 238.159,165.540 234.941 C 164.448 233.411,164.405 227.823,165.473 226.358 C 167.298 223.856,174.793 222.861,179.203 224.537 M262.321 224.527 C 267.786 226.448,267.840 231.001,262.452 235.544 C 259.241 238.252,252.059 238.225,249.208 235.494 C 247.457 233.817,247.112 228.782,248.582 226.365 C 250.094 223.879,257.613 222.873,262.321 224.527 " stroke="none" fill="#090a0a" fill-rule="evenodd"></path><path id="path2" d="M141.406 105.215 C 123.680 108.971,116.993 133.754,130.018 147.417 L 132.520 150.042 136.116 150.033 L 139.712 150.023 137.429 148.805 C 122.730 140.965,123.677 115.803,138.896 109.817 C 142.132 108.544,143.322 108.387,149.724 108.385 C 156.617 108.383,157.240 108.228,157.240 106.520 C 157.240 104.811,156.611 104.654,149.893 104.685 C 145.878 104.703,142.962 104.885,141.406 105.215 M168.554 105.276 C 167.818 106.089,167.842 107.125,168.613 107.822 C 169.184 108.339,173.829 108.383,228.543 108.383 L 287.853 108.383 288.380 107.630 C 289.075 106.639,289.046 105.904,288.288 105.218 C 287.277 104.302,169.383 104.360,168.554 105.276 M144.570 110.547 C 131.850 113.973,127.648 134.475,137.630 144.406 C 142.014 148.767,144.194 149.365,155.722 149.365 C 162.500 149.365,164.254 149.454,164.053 149.788 C 163.850 150.127,163.904 150.127,164.321 149.789 C 164.733 149.456,177.639 149.349,225.426 149.281 L 286.009 149.196 286.420 148.370 C 286.952 147.304,286.668 146.774,284.028 143.901 C 275.537 134.658,275.739 124.073,284.589 114.612 C 286.553 112.513,286.990 111.342,286.130 110.483 C 285.525 109.877,146.824 109.940,144.570 110.547 M280.440 113.653 C 280.440 113.757,279.897 114.554,279.233 115.424 C 272.787 123.866,272.729 135.135,279.088 143.529 C 279.832 144.511,280.440 145.389,280.440 145.480 C 280.440 145.571,250.072 145.606,212.955 145.558 L 145.470 145.470 143.329 144.309 C 131.915 138.121,133.381 118.012,145.530 114.130 C 147.466 113.511,280.440 113.041,280.440 113.653 M225.337 150.466 C 225.537 151.022,224.934 151.059,215.654 151.062 L 205.758 151.065 207.469 151.862 C 208.409 152.300,209.833 153.071,210.632 153.575 L 212.085 154.492 219.844 154.458 L 227.604 154.423 227.604 156.481 L 227.604 158.539 221.548 158.440 L 215.492 158.340 216.276 159.272 C 216.707 159.784,217.239 160.698,217.458 161.304 L 217.855 162.405 222.729 162.303 L 227.604 162.201 227.604 163.083 L 227.604 163.966 223.100 163.863 L 218.595 163.760 219.091 165.538 L 219.586 167.316 223.590 167.316 L 227.594 167.316 227.701 177.900 C 227.773 185.088,227.815 183.267,227.833 172.227 C 227.864 152.430,227.881 152.657,226.316 151.078 C 225.660 150.415,225.219 150.140,225.337 150.466 M142.322 152.583 L 142.422 154.276 152.413 154.359 L 162.405 154.442 163.089 152.666 L 163.773 150.889 152.998 150.889 L 142.222 150.889 142.322 152.583 M175.664 150.974 C 166.942 151.053,165.245 151.146,165.395 151.536 C 165.493 151.793,165.750 152.591,165.965 153.309 L 166.356 154.615 177.335 154.521 C 189.281 154.419,188.666 154.539,187.941 152.457 C 187.623 151.546,186.575 150.536,186.220 150.799 C 186.162 150.843,181.411 150.922,175.664 150.974 M232.967 151.905 C 231.491 154.327,231.709 154.445,237.640 154.445 L 242.934 154.445 242.731 153.199 C 242.401 151.160,242.043 151.003,237.581 150.943 L 233.587 150.889 232.967 151.905 M248.509 152.575 C 249.119 153.502,249.619 154.340,249.619 154.438 C 249.619 154.535,254.180 154.615,259.754 154.615 L 269.890 154.615 269.712 153.599 C 269.614 153.040,269.282 152.229,268.975 151.797 L 268.417 151.012 257.908 150.950 L 247.399 150.889 248.509 152.575 M272.933 151.905 C 272.593 152.464,272.314 153.264,272.313 153.683 L 272.312 154.445 279.018 154.445 C 286.213 154.445,286.537 154.371,286.537 152.726 C 286.537 151.234,286.041 151.110,279.614 150.996 L 273.552 150.889 272.933 151.905 M313.419 154.445 C 313.419 156.401,313.475 157.202,313.544 156.224 C 313.612 155.246,313.612 153.645,313.544 152.667 C 313.475 151.689,313.419 152.489,313.419 154.445 M137.717 152.900 C 138.297 153.171,139.211 153.494,139.750 153.617 L 140.728 153.841 139.962 153.275 C 139.541 152.963,138.626 152.640,137.930 152.558 L 136.664 152.407 137.717 152.900 M192.718 153.429 L 192.718 154.445 198.561 154.432 C 204.118 154.420,204.345 154.393,203.218 153.896 C 201.338 153.068,197.841 152.425,195.174 152.419 L 192.718 152.413 192.718 153.429 M253.325 160.273 L 254.530 162.205 262.235 162.220 L 269.941 162.235 269.941 160.383 L 269.941 158.531 261.030 158.436 L 252.119 158.340 253.325 160.273 M126.926 158.876 C 126.082 159.367,126.125 161.422,126.989 161.885 C 127.406 162.108,132.172 162.235,140.133 162.235 C 153.718 162.235,153.853 162.217,153.853 160.373 C 153.853 158.526,153.726 158.509,140.071 158.520 C 132.177 158.527,127.299 158.658,126.926 158.876 M170.279 158.876 C 169.536 159.309,169.500 160.984,170.219 161.703 C 170.675 162.160,172.001 162.235,179.533 162.235 L 188.315 162.235 188.315 160.373 L 188.315 158.510 179.594 158.520 C 174.302 158.526,170.639 158.666,170.279 158.876 M192.718 160.363 L 192.718 162.216 202.850 162.310 C 209.558 162.373,212.902 162.290,212.742 162.066 C 212.610 161.880,211.927 161.003,211.224 160.119 L 209.946 158.510 201.332 158.510 L 192.718 158.510 192.718 160.363 M232.345 160.373 L 232.345 162.235 237.595 162.235 L 242.845 162.235 242.845 160.373 L 242.845 158.510 237.595 158.510 L 232.345 158.510 232.345 160.373 M245.216 160.344 L 245.216 162.178 247.336 162.291 L 249.457 162.405 248.155 160.457 C 246.324 157.717,245.216 157.674,245.216 160.344 M272.312 160.658 L 272.312 162.467 273.751 162.898 C 275.637 163.462,278.839 165.086,279.401 165.764 C 280.093 166.597,280.319 166.422,280.788 164.691 C 281.027 163.806,281.385 162.854,281.582 162.574 C 281.780 162.295,281.820 162.167,281.672 162.291 C 281.523 162.415,280.309 161.932,278.973 161.219 C 276.893 160.107,273.503 158.848,272.589 158.848 C 272.436 158.848,272.312 159.663,272.312 160.658 M164.956 163.489 C 164.949 163.743,164.232 163.933,163.041 163.997 L 161.137 164.098 160.506 165.707 L 159.876 167.316 163.088 167.316 C 164.854 167.316,166.295 167.202,166.289 167.062 C 166.267 166.573,164.967 163.086,164.956 163.489 M170.498 165.622 L 171.151 167.485 179.733 167.389 L 188.315 167.294 188.315 165.622 L 188.315 163.950 179.080 163.855 L 169.846 163.760 170.498 165.622 M200.593 163.850 L 192.718 163.941 192.718 165.628 L 192.718 167.316 203.726 167.316 C 209.780 167.316,214.733 167.267,214.733 167.207 C 214.733 167.147,214.494 166.396,214.202 165.539 L 213.671 163.981 211.069 163.870 C 209.638 163.809,204.924 163.800,200.593 163.850 M247.671 163.859 L 245.216 163.959 245.216 165.637 L 245.216 167.316 248.781 167.316 L 252.346 167.316 251.845 166.384 C 250.474 163.834,250.337 163.751,247.671 163.859 M130.127 164.335 C 128.414 166.048,130.674 168.332,134.082 168.332 C 136.390 168.332,136.563 168.286,135.967 167.835 C 135.338 167.359,135.351 167.337,136.260 167.327 C 136.895 167.319,137.131 167.446,136.970 167.707 C 136.831 167.933,136.876 168.007,137.078 167.882 C 137.271 167.763,137.683 167.130,137.993 166.475 C 138.687 165.014,139.204 164.941,139.204 166.305 L 139.204 167.327 148.389 167.237 L 157.574 167.146 158.205 165.538 L 158.837 163.929 144.685 163.929 C 134.130 163.929,130.430 164.032,130.127 164.335 M232.345 165.622 L 232.345 167.316 237.595 167.316 L 242.845 167.316 242.845 165.622 L 242.845 163.929 237.595 163.929 L 232.345 163.929 232.345 165.622 M256.830 165.707 L 257.888 167.485 262.430 167.382 C 264.929 167.325,267.641 167.421,268.457 167.595 L 269.941 167.911 269.941 165.920 L 269.941 163.929 262.857 163.929 L 255.773 163.929 256.830 165.707 M272.312 167.133 C 272.312 168.913,272.374 169.041,273.991 170.553 C 282.802 178.795,281.083 196.483,270.989 201.440 L 269.094 202.371 202.267 202.460 C 148.525 202.531,135.494 202.465,135.713 202.121 C 135.864 201.886,136.575 200.798,137.294 199.703 C 138.573 197.757,140.278 194.323,140.721 192.803 C 141.186 191.206,137.376 191.714,136.728 193.335 C 136.443 194.046,135.779 195.380,135.251 196.298 C 134.328 197.907,134.296 198.114,134.388 201.951 L 134.484 205.934 202.315 205.846 L 270.145 205.758 272.726 204.483 C 280.634 200.574,285.674 188.022,282.209 180.864 C 280.787 177.925,280.111 175.163,280.057 172.071 C 280.022 170.055,279.960 169.767,279.763 170.703 C 279.626 171.355,279.493 171.728,279.469 171.532 C 279.324 170.373,273.716 165.284,272.584 165.284 C 272.434 165.284,272.312 166.116,272.312 167.133 M284.705 167.062 C 284.355 169.331,284.275 171.719,284.549 171.719 C 285.313 171.719,287.742 178.188,287.992 180.889 C 288.112 182.185,289.747 184.512,291.213 185.473 L 292.056 186.025 291.817 183.084 C 291.363 177.493,289.538 172.311,286.494 167.971 C 284.842 165.616,284.921 165.656,284.705 167.062 M93.565 168.565 C 93.891 168.651,94.424 168.651,94.750 168.565 C 95.076 168.480,94.809 168.411,94.157 168.411 C 93.506 168.411,93.239 168.480,93.565 168.565 M307.757 169.941 C 307.670 170.080,309.070 170.154,310.870 170.105 C 316.666 169.946,317.304 169.810,312.552 169.748 C 310.001 169.714,307.844 169.801,307.757 169.941 M134.916 173.022 C 137.663 177.478,139.083 183.900,138.249 188.099 L 137.922 189.747 139.120 189.552 C 141.396 189.183,141.914 188.293,141.914 184.754 C 141.914 180.167,140.009 173.412,138.715 173.412 C 138.425 173.412,138.188 173.131,138.188 172.787 C 138.188 171.761,136.963 170.955,135.136 170.779 L 133.432 170.615 134.916 173.022 M159.526 173.642 C 164.033 173.886,168.934 173.899,168.789 173.666 C 168.702 173.527,166.163 173.441,163.147 173.476 C 160.131 173.512,158.501 173.586,159.526 173.642 M287.892 189.465 C 287.892 194.674,282.029 203.261,276.715 205.835 C 272.914 207.677,275.948 207.604,202.964 207.612 L 134.462 207.621 134.462 209.483 L 134.462 211.346 149.924 211.346 L 165.385 211.346 167.282 210.415 C 169.095 209.525,169.402 209.483,174.259 209.483 C 179.175 209.483,179.393 209.514,180.991 210.415 C 183.362 211.752,194.287 211.889,194.473 210.584 C 194.557 209.987,194.801 209.822,195.597 209.822 C 196.393 209.822,196.636 209.987,196.721 210.584 L 196.830 211.346 205.758 211.346 L 214.686 211.346 214.794 210.584 C 214.879 209.987,215.123 209.822,215.919 209.822 C 216.715 209.822,216.958 209.987,217.043 210.584 C 217.150 211.334,217.229 211.346,222.015 211.346 C 226.802 211.346,226.881 211.334,226.987 210.584 C 227.072 209.987,227.316 209.822,228.112 209.822 L 229.128 209.822 229.094 212.024 C 229.074 213.261,229.120 213.595,229.197 212.786 C 229.334 211.347,229.335 211.346,230.733 211.346 C 231.502 211.346,232.785 211.030,233.583 210.644 C 234.466 210.216,236.053 209.864,237.631 209.744 L 240.228 209.548 240.083 210.532 L 239.939 211.516 244.440 211.516 C 246.916 211.516,248.942 211.418,248.942 211.299 C 248.942 209.107,261.631 208.611,264.550 210.689 C 266.265 211.910,273.304 211.333,277.233 209.649 C 282.563 207.364,287.529 201.922,289.903 195.767 C 291.616 191.326,291.624 190.574,289.969 189.529 C 288.252 188.445,287.892 188.434,287.892 189.465 M132.177 199.323 C 132.181 200.068,132.250 200.333,132.331 199.911 C 132.412 199.490,132.409 198.880,132.324 198.557 C 132.239 198.233,132.173 198.577,132.177 199.323 M130.821 202.217 C 129.198 204.064,129.445 205.927,131.312 205.927 C 131.918 205.927,132.091 206.116,132.091 206.774 C 132.091 207.505,131.940 207.621,130.981 207.621 C 128.757 207.621,127.569 209.504,128.985 210.786 C 129.326 211.094,130.164 211.346,130.848 211.346 L 132.091 211.346 132.091 213.378 L 132.091 215.411 130.265 215.411 C 105.764 215.411,98.770 251.227,121.423 260.694 C 125.094 262.229,122.698 262.191,209.137 262.083 L 291.432 261.981 291.756 261.060 C 292.012 260.331,291.950 259.996,291.461 259.455 C 290.844 258.774,290.606 258.772,208.334 258.683 L 125.826 258.594 123.854 257.842 C 104.038 250.283,108.816 219.136,129.792 219.136 L 132.091 219.136 132.091 220.613 L 132.091 222.090 130.193 222.286 C 113.419 224.017,111.388 249.576,127.593 255.009 L 129.699 255.715 210.295 255.715 C 283.113 255.715,290.943 255.664,291.424 255.183 C 292.374 254.233,292.004 253.517,288.962 250.425 C 281.265 242.603,281.265 235.368,288.963 227.458 C 292.020 224.316,292.214 223.977,291.605 222.840 C 291.269 222.212,290.778 222.185,279.751 222.185 L 268.247 222.185 268.247 223.878 L 268.247 225.572 276.715 225.572 C 281.372 225.572,285.182 225.654,285.182 225.755 C 285.182 225.857,284.589 226.733,283.865 227.703 C 278.443 234.961,278.366 242.863,283.650 249.887 L 285.494 252.337 207.692 252.248 L 129.890 252.159 127.944 251.373 C 115.854 246.491,117.948 227.839,130.813 225.815 L 132.076 225.617 132.178 231.267 C 132.234 234.375,132.246 228.861,132.204 219.014 C 132.163 209.167,132.082 201.077,132.025 201.037 C 131.969 200.997,131.427 201.528,130.821 202.217 M184.968 216.025 C 185.132 216.457,185.267 217.333,185.267 217.973 L 185.267 219.136 189.839 219.136 L 194.412 219.136 194.412 217.291 L 194.412 215.445 189.540 215.343 L 184.669 215.241 184.968 216.025 M229.967 217.032 C 229.598 218.017,229.297 218.894,229.297 218.980 C 229.297 219.548,245.144 219.100,245.671 218.517 C 247.765 216.204,246.267 215.607,237.875 215.411 L 230.636 215.241 229.967 217.032 M134.462 217.273 L 134.462 219.136 158.679 219.136 L 182.896 219.136 182.896 217.809 C 182.896 215.265,183.434 215.411,174.054 215.411 C 166.785 215.411,165.622 215.481,165.622 215.919 C 165.622 216.274,165.265 216.427,164.437 216.427 C 163.609 216.427,163.251 216.274,163.251 215.919 C 163.251 215.475,161.426 215.411,148.857 215.411 L 134.462 215.411 134.462 217.273 M196.782 217.273 L 196.782 219.136 205.758 219.136 L 214.733 219.136 214.733 217.273 L 214.733 215.411 205.758 215.411 L 196.782 215.411 196.782 217.273 M217.104 217.273 L 217.104 219.136 222.015 219.136 L 226.926 219.136 226.926 217.273 L 226.926 215.411 222.015 215.411 L 217.104 215.411 217.104 217.273 M258.839 215.938 C 256.466 217.600,258.375 219.136,262.814 219.136 L 266.304 219.136 266.094 217.866 C 265.978 217.168,265.882 216.329,265.880 216.003 C 265.875 215.177,260.003 215.123,258.839 215.938 M268.194 217.273 L 268.310 219.136 279.606 219.136 C 291.831 219.136,291.956 219.117,291.956 217.198 C 291.956 215.495,291.358 215.411,279.340 215.410 L 268.078 215.410 268.194 217.273 M134.462 223.874 L 134.462 225.564 148.942 225.653 L 163.421 225.741 164.098 224.750 C 164.471 224.205,165.447 223.405,166.268 222.972 L 167.761 222.185 151.112 222.185 L 134.462 222.185 134.462 223.874 M179.170 222.428 C 179.450 222.533,180.402 222.980,181.287 223.423 L 182.896 224.228 182.896 223.206 L 182.896 222.185 180.779 222.211 C 179.615 222.226,178.891 222.324,179.170 222.428 M185.267 223.878 L 185.267 225.572 189.839 225.572 L 194.412 225.572 194.412 223.878 L 194.412 222.185 189.839 222.185 L 185.267 222.185 185.267 223.878 M196.782 223.878 L 196.782 225.572 205.758 225.572 L 214.733 225.572 214.733 223.878 L 214.733 222.185 205.758 222.185 L 196.782 222.185 196.782 223.878 M217.104 223.878 L 217.104 225.572 222.015 225.572 L 226.926 225.572 226.926 223.878 L 226.926 222.185 222.015 222.185 L 217.104 222.185 217.104 223.878 M229.297 223.878 L 229.297 225.572 237.871 225.572 L 246.444 225.572 247.439 224.525 C 247.986 223.949,248.967 223.194,249.619 222.847 C 250.798 222.218,250.749 222.214,240.051 222.200 L 229.297 222.185 229.297 223.878 M263.308 222.867 C 264.224 223.224,265.131 223.674,265.323 223.867 C 265.926 224.469,266.215 224.254,266.215 223.201 L 266.215 222.185 263.929 222.200 L 261.643 222.216 263.308 222.867 M168.544 224.356 C 165.654 225.430,166.282 225.572,173.768 225.543 L 181.033 225.514 179.509 224.804 C 177.516 223.874,170.599 223.592,168.544 224.356 M251.524 224.376 C 248.592 225.421,249.280 225.572,256.918 225.561 C 261.779 225.555,264.162 225.440,263.801 225.229 C 261.611 223.950,254.170 223.432,251.524 224.376 M164.717 230.483 C 164.719 231.787,164.780 232.279,164.853 231.576 C 164.927 230.873,164.926 229.806,164.851 229.205 C 164.776 228.604,164.716 229.179,164.717 230.483 M245.666 230.483 C 245.667 231.787,245.728 232.279,245.802 231.576 C 245.875 230.873,245.874 229.806,245.799 229.205 C 245.724 228.604,245.664 229.179,245.666 230.483 M214.660 235.309 C 214.827 238.707,214.969 239.040,215.021 236.156 C 215.049 234.619,214.958 233.361,214.818 233.361 C 214.678 233.361,214.607 234.237,214.660 235.309 M182.828 234.293 C 182.769 234.433,182.809 235.538,182.919 236.749 L 183.118 238.950 183.176 236.494 C 183.229 234.265,183.124 233.597,182.828 234.293 M264.331 236.156 L 263.336 237.257 264.437 236.262 C 265.042 235.715,265.538 235.219,265.538 235.161 C 265.538 234.899,265.258 235.130,264.331 236.156 M171.126 239.368 C 172.011 239.438,173.459 239.438,174.344 239.368 C 175.229 239.299,174.505 239.241,172.735 239.241 C 170.965 239.241,170.241 239.299,171.126 239.368 M202.974 239.369 C 203.864 239.439,205.236 239.438,206.022 239.367 C 206.808 239.296,206.080 239.239,204.403 239.240 C 202.727 239.241,202.083 239.299,202.974 239.369 M254.456 239.369 C 255.346 239.439,256.718 239.438,257.504 239.367 C 258.290 239.296,257.561 239.239,255.885 239.240 C 254.208 239.241,253.565 239.299,254.456 239.369 " stroke="none" fill="#93a3a3" fill-rule="evenodd"></path><path id="path3" d="M272.081 156.816 C 272.081 158.027,272.143 158.522,272.218 157.917 C 272.293 157.312,272.293 156.321,272.218 155.715 C 272.143 155.110,272.081 155.605,272.081 156.816 M227.705 160.203 C 227.705 161.228,227.769 161.647,227.846 161.135 C 227.924 160.622,227.924 159.784,227.846 159.272 C 227.769 158.760,227.705 159.179,227.705 160.203 M272.058 163.760 C 272.062 164.505,272.131 164.770,272.212 164.348 C 272.293 163.927,272.290 163.317,272.206 162.994 C 272.121 162.670,272.055 163.014,272.058 163.760 M227.705 165.622 C 227.705 166.647,227.769 167.066,227.846 166.554 C 227.924 166.041,227.924 165.203,227.846 164.691 C 227.769 164.179,227.705 164.598,227.705 165.622 M272.125 180.525 C 272.125 186.952,272.171 189.581,272.226 186.367 C 272.282 183.154,272.282 177.896,272.226 174.682 C 272.171 171.469,272.125 174.098,272.125 180.525 M314.457 182.388 C 314.457 187.045,314.504 188.997,314.563 186.726 C 314.621 184.455,314.621 180.644,314.563 178.258 C 314.505 175.873,314.457 177.731,314.457 182.388 M132.210 203.218 C 132.210 204.801,132.268 205.449,132.339 204.657 C 132.411 203.865,132.411 202.570,132.339 201.778 C 132.268 200.986,132.210 201.634,132.210 203.218 M132.196 209.483 C 132.198 210.601,132.262 211.018,132.337 210.409 C 132.412 209.800,132.411 208.886,132.333 208.377 C 132.256 207.868,132.194 208.366,132.196 209.483 M194.520 213.378 C 194.520 214.589,194.581 215.085,194.657 214.479 C 194.732 213.874,194.732 212.883,194.657 212.278 C 194.581 211.672,194.520 212.168,194.520 213.378 M196.552 213.378 C 196.552 214.589,196.614 215.085,196.689 214.479 C 196.764 213.874,196.764 212.883,196.689 212.278 C 196.614 211.672,196.552 212.168,196.552 213.378 M216.874 213.378 C 216.874 214.589,216.935 215.085,217.010 214.479 C 217.086 213.874,217.086 212.883,217.010 212.278 C 216.935 211.672,216.874 212.168,216.874 213.378 M227.035 213.378 C 227.035 214.589,227.096 215.085,227.171 214.479 C 227.246 213.874,227.246 212.883,227.171 212.278 C 227.096 211.672,227.035 212.168,227.035 213.378 M132.196 217.273 C 132.198 218.391,132.262 218.808,132.337 218.199 C 132.412 217.590,132.411 216.676,132.333 216.167 C 132.256 215.658,132.194 216.156,132.196 217.273 M182.988 220.491 C 182.988 221.329,183.054 221.672,183.135 221.253 C 183.216 220.834,183.216 220.148,183.135 219.729 C 183.054 219.310,182.988 219.653,182.988 220.491 M185.020 220.491 C 185.020 221.329,185.086 221.672,185.167 221.253 C 185.248 220.834,185.248 220.148,185.167 219.729 C 185.086 219.310,185.020 219.653,185.020 220.491 M194.504 220.491 C 194.504 221.329,194.570 221.672,194.651 221.253 C 194.731 220.834,194.731 220.148,194.651 219.729 C 194.570 219.310,194.504 219.653,194.504 220.491 M196.536 220.491 C 196.536 221.329,196.602 221.672,196.683 221.253 C 196.763 220.834,196.763 220.148,196.683 219.729 C 196.602 219.310,196.536 219.653,196.536 220.491 M216.858 220.491 C 216.858 221.329,216.924 221.672,217.004 221.253 C 217.085 220.834,217.085 220.148,217.004 219.729 C 216.924 219.310,216.858 219.653,216.858 220.491 M227.019 220.491 C 227.019 221.329,227.085 221.672,227.165 221.253 C 227.246 220.834,227.246 220.148,227.165 219.729 C 227.085 219.310,227.019 219.653,227.019 220.491 M132.193 223.878 C 132.193 224.903,132.256 225.322,132.334 224.809 C 132.412 224.297,132.412 223.459,132.334 222.947 C 132.256 222.434,132.193 222.854,132.193 223.878 M216.908 232.176 C 216.907 235.902,216.957 237.472,217.018 235.666 C 217.079 233.859,217.079 230.811,217.018 228.892 C 216.958 226.973,216.908 228.450,216.908 232.176 M185.070 232.345 C 185.070 235.978,185.120 237.464,185.181 235.648 C 185.241 233.831,185.241 230.859,185.181 229.043 C 185.120 227.227,185.070 228.713,185.070 232.345 M194.530 228.620 C 194.530 230.203,194.588 230.851,194.660 230.059 C 194.731 229.268,194.731 227.972,194.660 227.180 C 194.588 226.389,194.530 227.036,194.530 228.620 M196.558 228.281 C 196.558 229.678,196.617 230.250,196.690 229.551 C 196.763 228.853,196.763 227.710,196.690 227.011 C 196.617 226.312,196.558 226.884,196.558 228.281 M227.068 232.345 C 227.068 235.978,227.118 237.464,227.179 235.648 C 227.240 233.831,227.240 230.859,227.179 229.043 C 227.118 227.227,227.068 228.713,227.068 232.345 M183.001 228.789 C 183.003 229.907,183.066 230.323,183.141 229.715 C 183.217 229.106,183.215 228.191,183.138 227.682 C 183.061 227.173,182.999 227.671,183.001 228.789 " stroke="none" fill="#6d7c7c" fill-rule="evenodd"></path><path id="path4" d="M301.867 149.608 C 302.382 149.686,303.144 149.684,303.561 149.603 C 303.978 149.523,303.556 149.459,302.625 149.462 C 301.693 149.464,301.353 149.530,301.867 149.608 M94.920 150.276 C 95.246 150.361,95.779 150.361,96.105 150.276 C 96.431 150.191,96.164 150.121,95.512 150.121 C 94.860 150.121,94.594 150.191,94.920 150.276 M90.686 152.314 C 91.105 152.394,91.791 152.394,92.210 152.314 C 92.629 152.233,92.286 152.167,91.448 152.167 C 90.610 152.167,90.267 152.233,90.686 152.314 M124.448 160.373 C 124.448 164.843,124.496 166.625,124.555 164.333 C 124.613 162.040,124.613 158.382,124.554 156.204 C 124.495 154.026,124.447 155.902,124.448 160.373 M85.848 170.872 C 85.848 180.559,85.891 184.473,85.944 179.570 C 85.997 174.667,85.997 166.741,85.944 161.958 C 85.891 157.174,85.848 161.185,85.848 170.872 M232.164 171.211 C 232.164 180.898,232.208 184.811,232.261 179.909 C 232.314 175.006,232.313 167.080,232.260 162.296 C 232.208 157.513,232.164 161.524,232.164 171.211 M242.953 156.478 C 242.953 157.688,243.015 158.184,243.090 157.578 C 243.165 156.973,243.165 155.982,243.090 155.377 C 243.015 154.771,242.953 155.267,242.953 156.478 M272.078 160.711 C 272.080 161.829,272.143 162.245,272.218 161.637 C 272.294 161.028,272.292 160.113,272.215 159.604 C 272.138 159.095,272.076 159.594,272.078 160.711 M242.924 162.913 C 242.924 163.565,242.993 163.831,243.079 163.506 C 243.164 163.180,243.164 162.646,243.079 162.320 C 242.993 161.994,242.924 162.261,242.924 162.913 M272.081 166.977 C 272.081 168.188,272.143 168.683,272.218 168.078 C 272.293 167.472,272.293 166.482,272.218 165.876 C 272.143 165.271,272.081 165.766,272.081 166.977 M138.987 170.364 C 138.987 172.134,139.045 172.858,139.114 171.973 C 139.184 171.088,139.184 169.640,139.114 168.755 C 139.045 167.870,138.987 168.594,138.987 170.364 M242.996 177.815 C 242.996 183.683,243.042 186.084,243.098 183.150 C 243.155 180.216,243.155 175.415,243.098 172.481 C 243.042 169.547,242.996 171.948,242.996 177.815 M124.455 170.792 C 124.364 171.028,124.331 175.410,124.381 180.530 L 124.471 189.839 131.668 189.849 L 138.866 189.860 131.753 189.758 L 124.640 189.656 124.640 180.189 L 124.640 170.722 129.128 170.617 L 133.616 170.512 129.117 170.438 C 125.748 170.383,124.578 170.472,124.455 170.792 M143.735 188.315 C 143.735 190.457,143.790 191.334,143.857 190.262 C 143.925 189.191,143.925 187.439,143.857 186.367 C 143.790 185.296,143.735 186.173,143.735 188.315 M193.819 189.917 C 194.517 189.990,195.660 189.990,196.359 189.917 C 197.058 189.843,196.486 189.784,195.089 189.784 C 193.692 189.784,193.120 189.843,193.819 189.917 M132.854 198.371 C 133.180 198.456,133.713 198.456,134.039 198.371 C 134.365 198.285,134.098 198.216,133.446 198.216 C 132.794 198.216,132.528 198.285,132.854 198.371 M172.325 209.565 C 173.496 209.632,175.325 209.631,176.389 209.564 C 177.453 209.497,176.494 209.443,174.259 209.443 C 172.024 209.444,171.153 209.499,172.325 209.565 M255.461 209.564 C 256.533 209.632,258.285 209.632,259.356 209.564 C 260.428 209.497,259.551 209.442,257.409 209.442 C 255.267 209.442,254.390 209.497,255.461 209.564 M237.515 209.896 C 238.030 209.974,238.792 209.972,239.209 209.891 C 239.625 209.811,239.204 209.747,238.273 209.750 C 237.341 209.752,237.000 209.818,237.515 209.896 M214.882 219.475 C 214.882 224.784,214.929 226.956,214.987 224.301 C 215.044 221.647,215.044 217.303,214.987 214.649 C 214.929 211.994,214.882 214.166,214.882 219.475 M194.516 217.273 C 194.518 218.391,194.582 218.808,194.657 218.199 C 194.732 217.590,194.731 216.676,194.654 216.167 C 194.576 215.658,194.515 216.156,194.516 217.273 M196.549 217.273 C 196.551 218.391,196.614 218.808,196.689 218.199 C 196.765 217.590,196.763 216.676,196.686 216.167 C 196.608 215.658,196.547 216.156,196.549 217.273 M216.870 217.273 C 216.872 218.391,216.936 218.808,217.011 218.199 C 217.086 217.590,217.085 216.676,217.007 216.167 C 216.930 215.658,216.869 216.156,216.870 217.273 M227.031 217.273 C 227.033 218.391,227.096 218.808,227.172 218.199 C 227.247 217.590,227.246 216.676,227.168 216.167 C 227.091 215.658,227.029 216.156,227.031 217.273 M185.007 218.120 C 185.007 218.772,185.076 219.039,185.161 218.713 C 185.247 218.387,185.247 217.854,185.161 217.528 C 185.076 217.202,185.007 217.468,185.007 218.120 M229.108 228.959 C 229.108 234.454,229.155 236.702,229.212 233.954 C 229.269 231.207,229.269 226.710,229.212 223.963 C 229.155 221.215,229.108 223.463,229.108 228.959 M182.953 222.967 C 182.912 223.890,182.775 224.189,182.472 224.018 C 182.136 223.828,182.135 223.872,182.467 224.229 C 183.073 224.882,183.298 224.467,183.145 222.981 L 183.010 221.677 182.953 222.967 M185.036 223.878 C 185.036 225.089,185.098 225.584,185.173 224.979 C 185.248 224.373,185.248 223.383,185.173 222.777 C 185.098 222.172,185.036 222.667,185.036 223.878 M194.520 223.878 C 194.520 225.089,194.581 225.584,194.657 224.979 C 194.732 224.373,194.732 223.383,194.657 222.777 C 194.581 222.172,194.520 222.667,194.520 223.878 M196.552 223.878 C 196.552 225.089,196.614 225.584,196.689 224.979 C 196.764 224.373,196.764 223.383,196.689 222.777 C 196.614 222.172,196.552 222.667,196.552 223.878 M216.870 223.709 C 216.872 224.826,216.936 225.243,217.011 224.634 C 217.086 224.025,217.085 223.111,217.007 222.602 C 216.930 222.093,216.869 222.591,216.870 223.709 M227.035 223.878 C 227.035 225.089,227.096 225.584,227.171 224.979 C 227.246 224.373,227.246 223.383,227.171 222.777 C 227.096 222.172,227.035 222.667,227.035 223.878 M247.688 230.652 C 247.688 231.677,247.752 232.096,247.829 231.583 C 247.907 231.071,247.907 230.233,247.829 229.721 C 247.752 229.208,247.688 229.627,247.688 230.652 M139.797 237.002 C 142.824 237.058,147.777 237.058,150.804 237.002 C 153.831 236.946,151.355 236.900,145.301 236.900 C 139.246 236.900,136.770 236.946,139.797 237.002 " stroke="none" fill="#647474" fill-rule="evenodd"></path></g></svg>